<!-- <svg xmlns="http://www.w3.org/2000/svg" class="icon icon-tabler icon-tabler-bookmark" width="28" height="28" viewBox="0 0 24 24" stroke-width="1.2" stroke="#ffffff" fill="none" stroke-linecap="round" stroke-linejoin="round">
  <path stroke="none" d="M0 0h24v24H0z" fill="none"/>
  <path d="M9 4h6a2 2 0 0 1 2 2v14l-5 -3l-5 3v-14a2 2 0 0 1 2 -2" />
</svg> -->
<svg width="20" height="20" viewBox="0 0 16 16" xmlns="http://www.w3.org/2000/svg">
  <path fill="#0000" d="M8 4C5.8 4 4 5.8 4 8s1.8 4 4 4 4-1.8 4-4-1.8-4-4-4z"/><path fill="#0000" d="M8 1c3.9 0 7 3.1 7 7s-3.1 7-7 7-7-3.1-7-7 3.1-7 7-7zm0-1C3.6 0 0 3.6 0 8s3.6 8 8 8 8-3.6 8-8-3.6-8-8-8z"/>
</svg>